<svg width="49" height="50" viewBox="0 0 49 50" fill="none" xmlns="http://www.w3.org/2000/svg">
<path d="M43.75 0.5H5.25C2.35156 0.5 0 2.85156 0 5.75V44.25C0 47.1484 2.35156 49.5 5.25 49.5H43.75C46.6484 49.5 49 47.1484 49 44.25V5.75C49 2.85156 46.6484 0.5 43.75 0.5ZM13.8906 39.0547C13.2891 40.1047 11.9437 40.4547 10.9047 39.8531C9.85469 39.2516 9.50469 37.9062 10.1062 36.8672L11.6703 34.1656C13.4312 33.6297 14.875 34.0453 16.0016 35.4125L13.8906 39.0547ZM29.0828 33.1594H9.1875C7.98438 33.1594 7 32.175 7 30.9719C7 29.7688 7.98438 28.7844 9.1875 28.7844H14.7656L21.9187 16.4031L19.6766 12.5312C19.075 11.4812 19.4359 10.1469 20.475 9.54531C21.525 8.94375 22.8594 9.30469 23.4609 10.3438L24.4344 12.0281L25.4078 10.3438C26.0094 9.29375 27.3547 8.94375 28.3938 9.54531C29.4438 10.1469 29.7937 11.4922 29.1922 12.5312L19.8078 28.7844H26.6C28.8094 28.7844 30.0453 31.3766 29.0828 33.1594ZM39.8125 33.1594H36.6406L38.7844 36.8672C39.3859 37.9172 39.025 39.2516 37.9859 39.8531C36.9359 40.4547 35.6016 40.0938 35 39.0547C31.4016 32.8312 28.7109 28.15 26.9062 25.0437C25.0797 21.8719 26.3813 18.7 27.6828 17.6281C29.1156 20.1109 31.2594 23.8297 34.125 28.7844H39.8125C41.0156 28.7844 42 29.7688 42 30.9719C42 32.1859 41.0156 33.1594 39.8125 33.1594Z" fill="#E8E8E8"/>
</svg>
