<svg width="48" height="48" viewBox="0 0 48 48" fill="none" xmlns="http://www.w3.org/2000/svg">
<path fill-rule="evenodd" clip-rule="evenodd" d="M3.74911 3.54736C0.40332 6.89315 0.40332 12.2781 0.40332 23.0481V24.9519C0.40332 35.7219 0.40332 41.1068 3.74911 44.4527C7.09491 47.7984 12.4798 47.7984 23.2498 47.7984H25.1537C35.9237 47.7984 41.3086 47.7984 44.6544 44.4527C48.0002 41.1068 48.0002 35.7219 48.0002 24.9519V23.0481C48.0002 12.2781 48.0002 6.89315 44.6544 3.54736C41.3086 0.201569 35.9237 0.201569 25.1537 0.201569H23.2498C12.4798 0.201569 7.09491 0.201569 3.74911 3.54736ZM8.43541 14.679C8.69323 27.0542 14.8808 34.4912 25.7289 34.4912H26.3438V27.4112C30.3301 27.8079 33.3443 30.7232 34.5541 34.4912H40.1865C38.6396 28.859 34.5738 25.7453 32.0353 24.5554C34.5738 23.0878 38.1436 19.5181 38.9964 14.679H33.8796C32.769 18.6058 29.4773 22.1756 26.3438 22.5127V14.679H21.227V28.4028C18.0538 27.6095 14.0479 23.7621 13.8694 14.679H8.43541Z" fill="#EAEDE8"/>
</svg>
