<svg width="204" height="241" viewBox="0 0 204 241" fill="none" xmlns="http://www.w3.org/2000/svg">
<path d="M114.805 156.555H85.2334V198.303H114.805V156.555Z" fill="#222222"/>
<path d="M0 240.05V114.807H29.5714V240.05H0Z" fill="#222222"/>
<path d="M13.915 121.765V45.2268H43.4865V121.765H13.915Z" fill="#222222"/>
<path d="M186.125 85.2352V45.2268H156.554V85.2352H186.125Z" fill="#222222"/>
<path d="M173.95 240.05V114.807H203.522V240.05H173.95Z" fill="#222222"/>
<path d="M0.000549316 210.479L203.521 210.479L203.521 240.05L0.000548024 240.05L0.000549316 210.479Z" fill="#222222"/>
<path d="M0.000549316 114.807L203.521 114.807L203.521 144.378L0.000548024 144.378L0.000549316 114.807Z" fill="#222222"/>
<path d="M52.1852 -4.18197e-06L147.857 0L147.857 29.5714L52.1852 29.5714L52.1852 -4.18197e-06Z" fill="#222222"/>
<path d="M36.5695 64.1981L13.9165 45.19L52.0763 0.00478184L74.8892 19.1392L36.5695 64.1981Z" fill="#222222"/>
<path d="M163.562 64.1981L186.215 45.19L148.056 0.00478184L125.243 19.1392L163.562 64.1981Z" fill="#222222"/>
</svg>
