<svg width="17" height="17" viewBox="0 0 17 17" fill="none" xmlns="http://www.w3.org/2000/svg">
<circle cx="8.125" cy="8.125" r="7.76119" stroke="#E8E8E8" stroke-width="0.727612"/>
<path d="M4.75075 11.0564C4.56132 11.2458 4.56132 11.553 4.75075 11.7424C4.94018 11.9318 5.24732 11.9318 5.43675 11.7424L4.75075 11.0564ZM11.6423 5.33598C11.6423 5.06808 11.4251 4.85091 11.1572 4.85091L6.79151 4.85091C6.52361 4.85091 6.30644 5.06808 6.30644 5.33598C6.30644 5.60388 6.52361 5.82106 6.79151 5.82106H10.6721V9.70165C10.6721 9.96955 10.8893 10.1867 11.1572 10.1867C11.4251 10.1867 11.6423 9.96955 11.6423 9.70165L11.6423 5.33598ZM5.43675 11.7424L11.5002 5.67898L10.8142 4.99298L4.75075 11.0564L5.43675 11.7424Z" fill="#E8E8E8"/>
</svg>
