<svg width="254" height="210" viewBox="0 0 254 210" fill="none" xmlns="http://www.w3.org/2000/svg">
<path d="M39.435 209.351L62.0252 190.421L23.7043 145.105L0.954534 164.161L39.435 209.351Z" fill="#222222"/>
<path d="M142.119 209.351L119.528 190.421L157.849 145.105L180.599 164.161L142.119 209.351Z" fill="#222222"/>
<path d="M7.91764 75.3311H7.8584V75.0645L7.91764 75.3311Z" fill="#222222"/>
<path d="M193.427 74.7949H193.486V74.5283L193.427 74.7949Z" fill="#222222"/>
<path d="M46.5518 52.4185L69.0468 33.1681L41.1197 0.000155016L18.3562 19.0759L46.5518 52.4185Z" fill="#222222"/>
<path d="M135.352 52.4185L112.857 33.1681L140.784 0.000155016L163.547 19.0759L135.352 52.4185Z" fill="#222222"/>
<path d="M0.875 164.094L29.5785 171.132L69.0462 33.1682L40.5145 26.1854L0.875 164.094Z" fill="#222222"/>
<path d="M181.023 164.094L152.32 171.132L112.852 33.1682L141.384 26.1854L181.023 164.094Z" fill="#222222"/>
<path d="M142.301 179.805H39.1699V209.482H142.301V179.805Z" fill="#222222"/>
<path d="M246.309 31.3709L163.438 53.5469L171.129 82.2122L254 60.0363L246.309 31.3709Z" fill="#222222"/>
</svg>
