<svg width="219" height="208" viewBox="0 0 219 208" fill="none" xmlns="http://www.w3.org/2000/svg">
<rect width="30.9654" height="54.6447" transform="matrix(1 0 0 -1 187.614 85.6104)" fill="#222222"/>
<rect width="30.9654" height="173.042" transform="matrix(1.19249e-08 -1 -1 -1.19249e-08 173.042 207.65)" fill="#222222"/>
<rect width="30.9654" height="173.042" transform="matrix(1.19249e-08 -1 -1 -1.19249e-08 173.042 30.9653)" fill="#222222"/>
<path d="M0 9.10742L30.9654 9.10742L30.9654 111.111H1.82149L0 9.10742Z" fill="#222222"/>
<path d="M173.042 9.10742L142.077 9.10742L142.077 111.111H173.042L173.042 9.10742Z" fill="#222222"/>
<rect width="30.9654" height="85.6101" transform="matrix(1.19634e-08 -1 -1 -1.18865e-08 129.326 162.113)" fill="#222222"/>
<path d="M129.27 162.097L105.55 142.193L149.034 90.7033L173.044 111.111L129.27 162.097Z" fill="#222222"/>
<path d="M43.9014 162.097L67.6222 142.193L24.1379 90.703L1.82208 111.111L43.9014 162.097Z" fill="#222222"/>
</svg>
