<svg width="471" height="574" viewBox="0 0 471 574" fill="none" xmlns="http://www.w3.org/2000/svg">
<path d="M280.036 122.9L222.219 138.05L143.854 117.062V86.3999L280.036 122.9Z" fill="#E8E8E8"/>
<path d="M323.848 353.829H143.854V384.491H323.848V353.829Z" fill="#E8E8E8"/>
<path d="M323.847 125.76V156.422L245.479 177.426L187.662 162.256L323.847 125.76Z" fill="#E8E8E8"/>
<path d="M323.848 205.783V236.437L190.378 272.213L162.676 248.975L323.848 205.783Z" fill="#E8E8E8"/>
<path d="M280.036 202.238L222.219 217.408L143.854 196.404V165.742L280.036 202.238Z" fill="#E8E8E8"/>
<path d="M224.439 321.94L143.854 254.306V292.974L200.738 340.69H224.439V321.94Z" fill="#E8E8E8"/>
<path d="M243.26 321.94L323.848 254.306V292.974L266.956 340.69H243.26V321.94Z" fill="#E8E8E8"/>
<path d="M120.324 494.34H115.516L104.753 483.159H101.599V494.34H97.8389V469.345H101.599V480.083H104.753L115.428 469.345H120.068L108.099 481.456L120.324 494.34Z" fill="#EAEDE8"/>
<path d="M130.218 469.339L143.257 490.464H143.607L143.432 480.166V469.339H147.193V494.343H141.766L128.468 472.953H128.118L128.293 484.043V494.343H124.533V469.339H130.218Z" fill="#EAEDE8"/>
<path d="M165.045 494.87C161.022 494.87 157.955 493.815 155.855 491.79C153.755 489.765 152.622 486.86 152.622 483.075V480.607C152.622 476.822 153.668 473.918 155.855 471.893C158.042 469.867 161.022 468.812 165.045 468.812C169.069 468.812 172.136 469.869 174.236 471.893C176.336 473.916 177.382 476.822 177.382 480.607V483.072C177.382 486.856 176.333 489.761 174.236 491.786C172.136 493.902 169.07 494.87 165.045 494.87ZM165.045 491.79C167.849 491.79 169.949 490.996 171.346 489.501C172.742 488.006 173.534 485.892 173.534 483.164V480.607C173.534 477.879 172.83 475.767 171.346 474.27C169.949 472.773 167.849 471.981 165.045 471.981C162.242 471.981 160.143 472.775 158.659 474.27C157.253 475.767 156.47 477.879 156.47 480.607V483.161C156.47 485.889 157.164 488.001 158.659 489.498C160.153 490.995 162.243 491.79 165.045 491.79Z" fill="#EAEDE8"/>
<path d="M186.748 494.343L180.105 469.339H184.04L188.856 488.528L189.471 491.08H189.821L190.429 488.528L195.162 470.044H200.684L205.404 488.528L205.998 491.082H206.35L206.877 488.53L211.771 469.339H215.716L209.247 494.338H203.457L199.697 479.55L198.119 473.213H197.777L196.199 479.55L192.518 494.338L186.748 494.343Z" fill="#EAEDE8"/>
<path d="M238.289 494.343L231.726 469.426H235.67L240.484 488.616L241.099 491.169H241.451L242.057 488.616L246.79 470.131H252.312L257.046 488.616L257.653 491.169H258.003L258.53 488.616L263.412 469.433H267.347L260.785 494.35H255.004L251.243 479.561L249.665 473.224H249.313L247.735 479.561L244.062 494.35L238.289 494.343Z" fill="#EAEDE8"/>
<path d="M294.643 469.345V494.34H290.881V482.991H275.831V494.34H272.069V469.345H275.831V479.907H290.881V469.345H294.643Z" fill="#EAEDE8"/>
<path d="M321.072 491.175V494.34H301.382V469.345H320.809V472.421H305.055V480.083H320.457V483.159H305.055V491.175H321.072Z" fill="#EAEDE8"/>
<path d="M347.852 489.239C347.632 488.057 347.278 486.903 346.798 485.802C346.384 484.871 345.717 484.078 344.873 483.513C344.318 483.144 343.693 482.895 343.037 482.781V482.637C344.873 482.372 346.192 481.755 347.062 480.702C347.931 479.65 348.379 478.322 348.379 476.646V476.212C348.379 474.1 347.677 472.421 346.279 471.193C344.881 469.964 342.775 469.339 339.804 469.339H326.682V494.34H330.355V484.838H338.58C339.897 484.838 340.946 485.014 341.645 485.449C342.322 485.881 342.868 486.492 343.223 487.216C343.615 488.049 343.881 488.937 344.012 489.85L344.801 494.34H348.824L347.852 489.239ZM330.35 481.842V472.421H339.277C341.114 472.421 342.423 472.775 343.221 473.57C344.02 474.365 344.443 475.417 344.443 476.822V477.265C344.443 478.677 344.012 479.818 343.221 480.613C342.431 481.409 341.121 481.842 339.277 481.842H330.35Z" fill="#EAEDE8"/>
<path d="M373.754 491.175V494.34H353.977V469.345H373.491V472.421H357.65V480.083H373.139V483.159H357.65V491.175H373.754Z" fill="#EAEDE8"/>
<path d="M63.6543 538.2C62.8676 538.2 62.121 538.067 61.4143 537.8C60.7076 537.52 60.081 537.093 59.5343 536.52C58.9876 535.933 58.5543 535.193 58.2343 534.3C57.9143 533.407 57.7543 532.34 57.7543 531.1V530.7C57.7543 529.5 57.9143 528.467 58.2343 527.6C58.5543 526.733 58.9876 526.02 59.5343 525.46C60.081 524.9 60.7076 524.487 61.4143 524.22C62.121 523.94 62.8676 523.8 63.6543 523.8C64.4143 523.8 65.1076 523.9 65.7343 524.1C66.3743 524.3 66.9343 524.587 67.4143 524.96C67.8943 525.333 68.281 525.793 68.5743 526.34C68.881 526.887 69.0743 527.507 69.1543 528.2H67.1543C66.9676 527.293 66.5743 526.613 65.9743 526.16C65.3743 525.707 64.601 525.48 63.6543 525.48C63.161 525.48 62.681 525.573 62.2143 525.76C61.7476 525.947 61.3276 526.247 60.9543 526.66C60.5943 527.06 60.301 527.593 60.0743 528.26C59.861 528.927 59.7543 529.74 59.7543 530.7V531.1C59.7543 532.113 59.8743 532.967 60.1143 533.66C60.3543 534.34 60.661 534.893 61.0343 535.32C61.4076 535.747 61.8276 536.053 62.2943 536.24C62.761 536.427 63.2143 536.52 63.6543 536.52C64.6943 536.52 65.5076 536.267 66.0943 535.76C66.681 535.253 67.0343 534.6 67.1543 533.8H69.1543C69.0476 534.573 68.8343 535.24 68.5143 535.8C68.1943 536.347 67.7876 536.8 67.2943 537.16C66.8143 537.52 66.261 537.787 65.6343 537.96C65.021 538.12 64.361 538.2 63.6543 538.2ZM74.548 524H83.548V525.64H76.428V529.98H82.948V531.62H76.428V536.36H83.548V538H74.548V524ZM92.6104 525.64H87.7504V524H99.3504V525.64H94.4904V538H92.6104V525.64ZM104.153 524H106.033V529.6H108.953C109.873 529.6 110.673 529.7 111.353 529.9C112.033 530.1 112.593 530.387 113.033 530.76C113.486 531.133 113.819 531.58 114.033 532.1C114.246 532.607 114.353 533.173 114.353 533.8C114.353 534.427 114.246 535 114.033 535.52C113.819 536.027 113.486 536.467 113.033 536.84C112.593 537.213 112.033 537.5 111.353 537.7C110.673 537.9 109.873 538 108.953 538H104.153V524ZM108.853 536.36C110.186 536.36 111.119 536.14 111.653 535.7C112.199 535.247 112.473 534.613 112.473 533.8C112.473 532.987 112.199 532.36 111.653 531.92C111.119 531.467 110.186 531.24 108.853 531.24H106.033V536.36H108.853ZM127.058 524H138.058V538H136.178V525.64H128.938V538H127.058V524ZM144.458 524H149.258C150.178 524 150.978 524.107 151.658 524.32C152.338 524.533 152.898 524.833 153.338 525.22C153.792 525.593 154.125 526.047 154.338 526.58C154.552 527.1 154.658 527.673 154.658 528.3C154.658 528.927 154.552 529.507 154.338 530.04C154.125 530.56 153.792 531.013 153.338 531.4C152.898 531.773 152.338 532.067 151.658 532.28C150.978 532.493 150.178 532.6 149.258 532.6H146.338V538H144.458V524ZM149.158 530.96C149.825 530.96 150.385 530.9 150.838 530.78C151.305 530.647 151.678 530.467 151.958 530.24C152.252 530.013 152.458 529.733 152.578 529.4C152.712 529.067 152.778 528.7 152.778 528.3C152.778 527.9 152.712 527.533 152.578 527.2C152.458 526.867 152.252 526.587 151.958 526.36C151.678 526.133 151.305 525.96 150.838 525.84C150.385 525.707 149.825 525.64 149.158 525.64H146.338V530.96H149.158ZM159.964 524H168.964V525.64H161.844V529.98H168.364V531.62H161.844V536.36H168.964V538H159.964V524ZM174.571 524H176.531L181.211 532.9L185.891 524H187.771V538H185.891V527.4L181.871 535H180.471L176.451 527.4V538H174.571V524ZM194.178 524H196.058V535L203.498 524H205.378V538H203.498V527L196.058 538H194.178V524ZM219.393 534.52H213.473L212.133 538H210.173L215.533 524H217.413L222.773 538H220.733L219.393 534.52ZM214.093 532.88H218.773L216.433 526.4L214.093 532.88ZM227.062 538.2C226.862 538.2 226.662 538.18 226.462 538.14V536.3C226.529 536.313 226.629 536.32 226.762 536.32C227.029 536.32 227.262 536.28 227.462 536.2C227.675 536.107 227.855 535.947 228.002 535.72C228.162 535.48 228.295 535.147 228.402 534.72C228.522 534.293 228.615 533.747 228.682 533.08C228.749 532.4 228.795 531.58 228.822 530.62C228.849 529.66 228.862 528.52 228.862 527.2V524H238.262V538H236.382V525.64H230.742V527.6C230.742 529.08 230.709 530.373 230.642 531.48C230.575 532.573 230.475 533.513 230.342 534.3C230.209 535.087 230.042 535.733 229.842 536.24C229.642 536.747 229.402 537.147 229.122 537.44C228.855 537.72 228.549 537.913 228.202 538.02C227.855 538.14 227.475 538.2 227.062 538.2ZM244.659 524H246.539V529.6H249.459C250.379 529.6 251.179 529.7 251.859 529.9C252.539 530.1 253.099 530.387 253.539 530.76C253.992 531.133 254.326 531.58 254.539 532.1C254.752 532.607 254.859 533.173 254.859 533.8C254.859 534.427 254.752 535 254.539 535.52C254.326 536.027 253.992 536.467 253.539 536.84C253.099 537.213 252.539 537.5 251.859 537.7C251.179 537.9 250.379 538 249.459 538H244.659V524ZM249.359 536.36C250.692 536.36 251.626 536.14 252.159 535.7C252.706 535.247 252.979 534.613 252.979 533.8C252.979 532.987 252.706 532.36 252.159 531.92C251.626 531.467 250.692 531.24 249.359 531.24H246.539V536.36H249.359ZM260.164 524H262.044V529.98H269.484V524H271.364V538H269.484V531.62H262.044V538H260.164V524ZM277.76 524H279.64V529.6H282.16C283.08 529.6 283.88 529.7 284.56 529.9C285.24 530.1 285.8 530.387 286.24 530.76C286.693 531.133 287.026 531.58 287.24 532.1C287.453 532.607 287.56 533.173 287.56 533.8C287.56 534.427 287.453 535 287.24 535.52C287.026 536.027 286.693 536.467 286.24 536.84C285.8 537.213 285.24 537.5 284.56 537.7C283.88 537.9 283.08 538 282.16 538H277.76V524ZM282.06 536.36C283.393 536.36 284.326 536.14 284.86 535.7C285.406 535.247 285.68 534.613 285.68 533.8C285.68 532.987 285.406 532.36 284.86 531.92C284.326 531.467 283.393 531.24 282.06 531.24H279.64V536.36H282.06ZM289.68 524H291.56V538H289.68V524ZM301.493 530.86L296.753 524H298.833L302.573 529.42L306.353 524H308.353L303.633 530.82L308.553 538H306.433L302.533 532.24L298.593 538H296.553L301.493 530.86ZM320.956 524H329.756V525.64H322.836V538H320.956V524ZM334.547 524H336.427V535L343.867 524H345.747V538H343.867V527L336.427 538H334.547V524ZM352.143 524H361.243V525.62H354.023V529.6H357.143C358.063 529.6 358.863 529.7 359.543 529.9C360.223 530.1 360.783 530.387 361.223 530.76C361.676 531.133 362.009 531.58 362.223 532.1C362.436 532.607 362.543 533.173 362.543 533.8C362.543 534.427 362.436 535 362.223 535.52C362.009 536.027 361.676 536.467 361.223 536.84C360.783 537.213 360.223 537.5 359.543 537.7C358.863 537.9 358.063 538 357.143 538H352.143V524ZM357.043 536.36C358.376 536.36 359.309 536.14 359.843 535.7C360.389 535.247 360.663 534.613 360.663 533.8C360.663 532.987 360.389 532.36 359.843 531.92C359.309 531.467 358.376 531.24 357.043 531.24H354.023V536.36H357.043ZM367.843 524H369.723V530.02H371.323L376.803 524L379.043 524L372.923 530.68L379.243 538H376.843L371.323 531.58H369.723V538H367.843V524ZM384.247 524H386.127V535L393.567 524H395.447V538H393.567V527L386.127 538L384.247 538V524ZM405.383 530.86L400.643 524H402.723L406.463 529.42L410.243 524H412.243L407.523 530.82L412.443 538H410.323L406.423 532.24L402.483 538H400.443L405.383 530.86ZM91.9953 565.2C91.1953 565.2 90.422 565.067 89.6753 564.8C88.9286 564.52 88.2686 564.093 87.6953 563.52C87.122 562.947 86.662 562.213 86.3153 561.32C85.9686 560.427 85.7953 559.353 85.7953 558.1V557.7C85.7953 556.5 85.9686 555.467 86.3153 554.6C86.662 553.733 87.122 553.02 87.6953 552.46C88.2686 551.887 88.9286 551.467 89.6753 551.2C90.422 550.933 91.1953 550.8 91.9953 550.8C92.7953 550.8 93.5686 550.933 94.3153 551.2C95.062 551.467 95.722 551.887 96.2953 552.46C96.8686 553.02 97.3286 553.733 97.6753 554.6C98.022 555.467 98.1953 556.5 98.1953 557.7V558.1C98.1953 559.353 98.022 560.427 97.6753 561.32C97.3286 562.213 96.8686 562.947 96.2953 563.52C95.722 564.093 95.062 564.52 94.3153 564.8C93.5686 565.067 92.7953 565.2 91.9953 565.2ZM91.9953 563.52C92.542 563.52 93.0686 563.42 93.5753 563.22C94.082 563.02 94.5286 562.707 94.9153 562.28C95.302 561.84 95.6086 561.28 95.8353 560.6C96.0753 559.907 96.1953 559.073 96.1953 558.1V557.7C96.1953 556.78 96.0753 555.993 95.8353 555.34C95.6086 554.673 95.302 554.133 94.9153 553.72C94.5286 553.293 94.082 552.98 93.5753 552.78C93.0686 552.58 92.542 552.48 91.9953 552.48C91.4486 552.48 90.922 552.58 90.4153 552.78C89.9086 552.98 89.462 553.293 89.0753 553.72C88.6886 554.133 88.3753 554.673 88.1353 555.34C87.9086 555.993 87.7953 556.78 87.7953 557.7V558.1C87.7953 559.073 87.9086 559.907 88.1353 560.6C88.3753 561.28 88.6886 561.84 89.0753 562.28C89.462 562.707 89.9086 563.02 90.4153 563.22C90.922 563.42 91.4486 563.52 91.9953 563.52ZM109.46 564.14C108.433 564.14 107.513 563.993 106.7 563.7C105.887 563.407 105.2 562.993 104.64 562.46C104.08 561.913 103.647 561.267 103.34 560.52C103.047 559.76 102.9 558.92 102.9 558V557.6C102.9 556.787 103.047 556.027 103.34 555.32C103.647 554.613 104.08 554.007 104.64 553.5C105.2 552.993 105.887 552.593 106.7 552.3C107.513 552.007 108.433 551.86 109.46 551.86V550.4H111.34V551.86C112.367 551.86 113.287 552.007 114.1 552.3C114.913 552.593 115.6 552.993 116.16 553.5C116.72 554.007 117.147 554.613 117.44 555.32C117.747 556.027 117.9 556.787 117.9 557.6V558C117.9 558.92 117.747 559.76 117.44 560.52C117.147 561.267 116.72 561.913 116.16 562.46C115.6 562.993 114.913 563.407 114.1 563.7C113.287 563.993 112.367 564.14 111.34 564.14V565.6H109.46V564.14ZM115.9 557.6C115.9 557.027 115.8 556.493 115.6 556C115.4 555.507 115.107 555.08 114.72 554.72C114.333 554.347 113.853 554.06 113.28 553.86C112.72 553.647 112.073 553.54 111.34 553.54L111.34 562.46C112.073 562.46 112.72 562.353 113.28 562.14C113.853 561.927 114.333 561.627 114.72 561.24C115.107 560.853 115.4 560.387 115.6 559.84C115.8 559.293 115.9 558.68 115.9 558V557.6ZM104.9 558C104.9 558.68 105 559.293 105.2 559.84C105.4 560.387 105.693 560.853 106.08 561.24C106.467 561.627 106.94 561.927 107.5 562.14C108.073 562.353 108.727 562.46 109.46 562.46L109.46 553.54C108.727 553.54 108.073 553.647 107.5 553.86C106.94 554.06 106.467 554.347 106.08 554.72C105.693 555.08 105.4 555.507 105.2 556C105 556.493 104.9 557.027 104.9 557.6V558ZM123.407 551H125.287L125.287 562L132.727 551H134.607V565H132.727V554L125.287 565H123.407L123.407 551ZM146.102 565.2C145.316 565.2 144.569 565.067 143.862 564.8C143.156 564.52 142.529 564.093 141.982 563.52C141.436 562.933 141.002 562.193 140.682 561.3C140.362 560.407 140.202 559.34 140.202 558.1V557.7C140.202 556.5 140.362 555.467 140.682 554.6C141.002 553.733 141.436 553.02 141.982 552.46C142.529 551.9 143.156 551.487 143.862 551.22C144.569 550.94 145.316 550.8 146.102 550.8C146.862 550.8 147.556 550.9 148.182 551.1C148.822 551.3 149.382 551.587 149.862 551.96C150.342 552.333 150.729 552.793 151.022 553.34C151.329 553.887 151.522 554.507 151.602 555.2H149.602C149.416 554.293 149.022 553.613 148.422 553.16C147.822 552.707 147.049 552.48 146.102 552.48C145.609 552.48 145.129 552.573 144.662 552.76C144.196 552.947 143.776 553.247 143.402 553.66C143.042 554.06 142.749 554.593 142.522 555.26C142.309 555.927 142.202 556.74 142.202 557.7V558.1C142.202 559.113 142.322 559.967 142.562 560.66C142.802 561.34 143.109 561.893 143.482 562.32C143.856 562.747 144.276 563.053 144.742 563.24C145.209 563.427 145.662 563.52 146.102 563.52C147.142 563.52 147.956 563.267 148.542 562.76C149.129 562.253 149.482 561.6 149.602 560.8H151.602C151.496 561.573 151.282 562.24 150.962 562.8C150.642 563.347 150.236 563.8 149.742 564.16C149.262 564.52 148.709 564.787 148.082 564.96C147.469 565.12 146.809 565.2 146.102 565.2ZM156.996 551H158.876V556.98H166.316V551H168.196V565H166.316V558.62H158.876V565H156.996V551ZM174.591 551H176.471V556.6H178.991C179.911 556.6 180.711 556.7 181.391 556.9C182.071 557.1 182.631 557.387 183.071 557.76C183.525 558.133 183.858 558.58 184.071 559.1C184.285 559.607 184.391 560.173 184.391 560.8C184.391 561.427 184.285 562 184.071 562.52C183.858 563.027 183.525 563.467 183.071 563.84C182.631 564.213 182.071 564.5 181.391 564.7C180.711 564.9 179.911 565 178.991 565H174.591V551ZM178.891 563.36C180.225 563.36 181.158 563.14 181.691 562.7C182.238 562.247 182.511 561.613 182.511 560.8C182.511 559.987 182.238 559.36 181.691 558.92C181.158 558.467 180.225 558.24 178.891 558.24H176.471V563.36H178.891ZM186.511 551H188.391V565H186.511V551ZM198.324 557.86L193.584 551H195.664L199.404 556.42L203.184 551H205.184L200.464 557.82L205.384 565H203.264L199.364 559.24L195.424 565H193.384L198.324 557.86ZM217.787 551H228.787V565H226.907V552.64H219.667V565H217.787V551ZM235.188 551H239.988C240.908 551 241.708 551.107 242.388 551.32C243.068 551.533 243.628 551.833 244.068 552.22C244.521 552.593 244.854 553.047 245.068 553.58C245.281 554.1 245.388 554.673 245.388 555.3C245.388 555.927 245.281 556.507 245.068 557.04C244.854 557.56 244.521 558.013 244.068 558.4C243.628 558.773 243.068 559.067 242.388 559.28C241.708 559.493 240.908 559.6 239.988 559.6H237.068V565H235.188V551ZM239.888 557.96C240.554 557.96 241.114 557.9 241.568 557.78C242.034 557.647 242.408 557.467 242.688 557.24C242.981 557.013 243.188 556.733 243.308 556.4C243.441 556.067 243.508 555.7 243.508 555.3C243.508 554.9 243.441 554.533 243.308 554.2C243.188 553.867 242.981 553.587 242.688 553.36C242.408 553.133 242.034 552.96 241.568 552.84C241.114 552.707 240.554 552.64 239.888 552.64H237.068V557.96H239.888ZM256.093 565.2C255.293 565.2 254.52 565.067 253.773 564.8C253.026 564.52 252.366 564.093 251.793 563.52C251.22 562.947 250.76 562.213 250.413 561.32C250.066 560.427 249.893 559.353 249.893 558.1V557.7C249.893 556.5 250.066 555.467 250.413 554.6C250.76 553.733 251.22 553.02 251.793 552.46C252.366 551.887 253.026 551.467 253.773 551.2C254.52 550.933 255.293 550.8 256.093 550.8C256.893 550.8 257.666 550.933 258.413 551.2C259.16 551.467 259.82 551.887 260.393 552.46C260.966 553.02 261.426 553.733 261.773 554.6C262.12 555.467 262.293 556.5 262.293 557.7V558.1C262.293 559.353 262.12 560.427 261.773 561.32C261.426 562.213 260.966 562.947 260.393 563.52C259.82 564.093 259.16 564.52 258.413 564.8C257.666 565.067 256.893 565.2 256.093 565.2ZM256.093 563.52C256.64 563.52 257.166 563.42 257.673 563.22C258.18 563.02 258.626 562.707 259.013 562.28C259.4 561.84 259.706 561.28 259.933 560.6C260.173 559.907 260.293 559.073 260.293 558.1V557.7C260.293 556.78 260.173 555.993 259.933 555.34C259.706 554.673 259.4 554.133 259.013 553.72C258.626 553.293 258.18 552.98 257.673 552.78C257.166 552.58 256.64 552.48 256.093 552.48C255.546 552.48 255.02 552.58 254.513 552.78C254.006 552.98 253.56 553.293 253.173 553.72C252.786 554.133 252.473 554.673 252.233 555.34C252.006 555.993 251.893 556.78 251.893 557.7V558.1C251.893 559.073 252.006 559.907 252.233 560.6C252.473 561.28 252.786 561.84 253.173 562.28C253.56 562.707 254.006 563.02 254.513 563.22C255.02 563.42 255.546 563.52 256.093 563.52ZM272.998 565.2C272.211 565.2 271.464 565.067 270.758 564.8C270.051 564.52 269.424 564.093 268.878 563.52C268.331 562.933 267.898 562.193 267.578 561.3C267.258 560.407 267.098 559.34 267.098 558.1V557.7C267.098 556.5 267.258 555.467 267.578 554.6C267.898 553.733 268.331 553.02 268.878 552.46C269.424 551.9 270.051 551.487 270.758 551.22C271.464 550.94 272.211 550.8 272.998 550.8C273.758 550.8 274.451 550.9 275.078 551.1C275.718 551.3 276.278 551.587 276.758 551.96C277.238 552.333 277.624 552.793 277.918 553.34C278.224 553.887 278.418 554.507 278.498 555.2H276.498C276.311 554.293 275.918 553.613 275.318 553.16C274.718 552.707 273.944 552.48 272.998 552.48C272.504 552.48 272.024 552.573 271.558 552.76C271.091 552.947 270.671 553.247 270.298 553.66C269.938 554.06 269.644 554.593 269.418 555.26C269.204 555.927 269.098 556.74 269.098 557.7V558.1C269.098 559.113 269.218 559.967 269.458 560.66C269.698 561.34 270.004 561.893 270.378 562.32C270.751 562.747 271.171 563.053 271.638 563.24C272.104 563.427 272.558 563.52 272.998 563.52C274.038 563.52 274.851 563.267 275.438 562.76C276.024 562.253 276.378 561.6 276.498 560.8H278.498C278.391 561.573 278.178 562.24 277.858 562.8C277.538 563.347 277.131 563.8 276.638 564.16C276.158 564.52 275.604 564.787 274.978 564.96C274.364 565.12 273.704 565.2 272.998 565.2ZM286.761 552.64H281.901V551H293.501V552.64H288.641V565H286.761V552.64ZM298.303 551H303.103C304.023 551 304.823 551.107 305.503 551.32C306.183 551.533 306.743 551.833 307.183 552.22C307.636 552.593 307.97 553.047 308.183 553.58C308.396 554.1 308.503 554.673 308.503 555.3C308.503 555.927 308.396 556.507 308.183 557.04C307.97 557.56 307.636 558.013 307.183 558.4C306.743 558.773 306.183 559.067 305.503 559.28C304.823 559.493 304.023 559.6 303.103 559.6H300.183V565H298.303V551ZM303.003 557.96C303.67 557.96 304.23 557.9 304.683 557.78C305.15 557.647 305.523 557.467 305.803 557.24C306.096 557.013 306.303 556.733 306.423 556.4C306.556 556.067 306.623 555.7 306.623 555.3C306.623 554.9 306.556 554.533 306.423 554.2C306.303 553.867 306.096 553.587 305.803 553.36C305.523 553.133 305.15 552.96 304.683 552.84C304.23 552.707 303.67 552.64 303.003 552.64H300.183V557.96H303.003ZM319.827 561.52H313.907L312.567 565H310.607L315.967 551H317.847L323.207 565H321.167L319.827 561.52ZM314.527 559.88H319.207L316.867 553.4L314.527 559.88ZM328.005 551H329.885V556.98H337.325V551H339.205V565H337.325V558.62H329.885V565H328.005V551ZM350.701 565.2C349.914 565.2 349.167 565.067 348.461 564.8C347.754 564.52 347.127 564.093 346.581 563.52C346.034 562.933 345.601 562.193 345.281 561.3C344.961 560.407 344.801 559.34 344.801 558.1V557.7C344.801 556.5 344.961 555.467 345.281 554.6C345.601 553.733 346.034 553.02 346.581 552.46C347.127 551.9 347.754 551.487 348.461 551.22C349.167 550.94 349.914 550.8 350.701 550.8C351.461 550.8 352.154 550.9 352.781 551.1C353.421 551.3 353.981 551.587 354.461 551.96C354.941 552.333 355.327 552.793 355.621 553.34C355.927 553.887 356.121 554.507 356.201 555.2H354.201C354.014 554.293 353.621 553.613 353.021 553.16C352.421 552.707 351.647 552.48 350.701 552.48C350.207 552.48 349.727 552.573 349.261 552.76C348.794 552.947 348.374 553.247 348.001 553.66C347.641 554.06 347.347 554.593 347.121 555.26C346.907 555.927 346.801 556.74 346.801 557.7V558.1C346.801 559.113 346.921 559.967 347.161 560.66C347.401 561.34 347.707 561.893 348.081 562.32C348.454 562.747 348.874 563.053 349.341 563.24C349.807 563.427 350.261 563.52 350.701 563.52C351.741 563.52 352.554 563.267 353.141 562.76C353.727 562.253 354.081 561.6 354.201 560.8H356.201C356.094 561.573 355.881 562.24 355.561 562.8C355.241 563.347 354.834 563.8 354.341 564.16C353.861 564.52 353.307 564.787 352.681 564.96C352.067 565.12 351.407 565.2 350.701 565.2ZM364.464 552.64H359.604V551H371.204V552.64H366.344V565H364.464V552.64ZM376.006 551H381.006C381.846 551 382.566 551.093 383.166 551.28C383.766 551.467 384.26 551.727 384.646 552.06C385.046 552.38 385.34 552.773 385.526 553.24C385.713 553.693 385.806 554.193 385.806 554.74C385.806 555.46 385.606 556.08 385.206 556.6C384.806 557.107 384.313 557.473 383.726 557.7C384.553 557.887 385.206 558.267 385.686 558.84C386.166 559.4 386.406 560.133 386.406 561.04C386.406 561.613 386.313 562.14 386.126 562.62C385.94 563.1 385.646 563.52 385.246 563.88C384.846 564.227 384.326 564.5 383.686 564.7C383.06 564.9 382.3 565 381.406 565H376.006V551ZM381.406 563.36C382.006 563.36 382.506 563.307 382.906 563.2C383.306 563.08 383.626 562.92 383.866 562.72C384.106 562.507 384.273 562.253 384.366 561.96C384.473 561.667 384.526 561.34 384.526 560.98C384.526 560.62 384.473 560.293 384.366 560C384.273 559.693 384.106 559.44 383.866 559.24C383.626 559.027 383.3 558.867 382.886 558.76C382.486 558.64 381.986 558.58 381.386 558.58H377.886V563.36H381.406ZM381.006 557.02C381.566 557.02 382.033 556.967 382.406 556.86C382.78 556.753 383.08 556.6 383.306 556.4C383.533 556.2 383.693 555.967 383.786 555.7C383.88 555.433 383.926 555.14 383.926 554.82C383.926 554.5 383.88 554.207 383.786 553.94C383.693 553.66 383.533 553.427 383.306 553.24C383.08 553.053 382.78 552.907 382.406 552.8C382.033 552.693 381.566 552.64 381.006 552.64H377.886V557.02H381.006Z" fill="#E8E8E8"/>
</svg>
