<svg width="51" height="85" viewBox="0 0 51 85" fill="none" xmlns="http://www.w3.org/2000/svg">
<path d="M38.76 10.4312L22.3042 14.6198L0 8.81713V0.339844L38.76 10.4312Z" fill="#B3A16E"/>
<path d="M51 75.8198H0V84.9998H51V75.8198Z" fill="#B3A16E"/>
<path d="M51.0002 11.5601V20.0348L28.6955 25.8401L12.2402 21.6473L51.0002 11.5601Z" fill="#B3A16E"/>
<path d="M50.9996 34V42.4722L12.9889 52.36L5.09961 45.9374L50.9996 34Z" fill="#B3A16E"/>
<path d="M38.76 32.867L22.3042 37.0598L0 31.2545V22.7798L38.76 32.867Z" fill="#B3A16E"/>
<path d="M22.44 67.4464L0 48.2798V59.2377L15.8403 72.7598H22.44V67.4464Z" fill="#B3A16E"/>
<path d="M28.5596 67.4464L50.9996 48.2798V59.2377L35.1579 72.7598H28.5596V67.4464Z" fill="#B3A16E"/>
</svg>
