<svg width="260" height="8" viewBox="0 0 260 8" fill="none" xmlns="http://www.w3.org/2000/svg">
<path d="M0.646447 3.40572C0.451184 3.60099 0.451184 3.91757 0.646447 4.11283L3.82843 7.29481C4.02369 7.49007 4.34027 7.49007 4.53553 7.29481C4.7308 7.09955 4.7308 6.78297 4.53553 6.5877L1.70711 3.75928L4.53553 0.93085C4.7308 0.735588 4.7308 0.419005 4.53553 0.223743C4.34027 0.028481 4.02369 0.028481 3.82843 0.223743L0.646447 3.40572ZM259.354 4.11281C259.549 3.91755 259.549 3.60097 259.354 3.40571L256.172 0.223727C255.976 0.0284646 255.66 0.0284646 255.464 0.223727C255.269 0.418989 255.269 0.735571 255.464 0.930834L258.293 3.75926L255.464 6.58769C255.269 6.78295 255.269 7.09953 255.464 7.29479C255.66 7.49006 255.976 7.49006 256.172 7.29479L259.354 4.11281ZM1 4.25928L259 4.25926L259 3.25926L1 3.25928L1 4.25928Z" fill="url(#paint0_linear_204_2674)"/>
<defs>
<linearGradient id="paint0_linear_204_2674" x1="296" y1="3.75928" x2="-45" y2="3.75926" gradientUnits="userSpaceOnUse">
<stop stop-color="#E8E8E8"/>
<stop offset="1" stop-color="#424242" stop-opacity="0"/>
</linearGradient>
</defs>
</svg>
