<svg width="260" height="8" viewBox="0 0 260 8" fill="none" xmlns="http://www.w3.org/2000/svg">
<path d="M259.354 3.59664C259.549 3.7919 259.549 4.10849 259.354 4.30375L256.172 7.48573C255.976 7.68099 255.66 7.68099 255.464 7.48573C255.269 7.29047 255.269 6.97388 255.464 6.77862L258.293 3.9502L255.464 1.12177C255.269 0.926506 255.269 0.609923 255.464 0.414661C255.66 0.219399 255.976 0.219399 256.172 0.414661L259.354 3.59664ZM0.646454 4.30373C0.451202 4.10847 0.451202 3.79189 0.646454 3.59663L3.82843 0.414645C4.0237 0.219383 4.34027 0.219383 4.53554 0.414645C4.7308 0.609907 4.7308 0.926489 4.53554 1.12175L1.70712 3.95018L4.53554 6.77861C4.7308 6.97387 4.7308 7.29045 4.53554 7.48571C4.34027 7.68097 4.0237 7.68097 3.82843 7.48571L0.646454 4.30373ZM259 4.4502L1 4.45018L1 3.45018L259 3.4502L259 4.4502Z" fill="url(#paint0_linear_219_2866)"/>
<defs>
<linearGradient id="paint0_linear_219_2866" x1="-36" y1="3.9502" x2="305" y2="3.95018" gradientUnits="userSpaceOnUse">
<stop stop-color="#E8E8E8"/>
<stop offset="1" stop-color="#424242" stop-opacity="0"/>
</linearGradient>
</defs>
</svg>
