<svg width="48" height="48" viewBox="0 0 48 48" fill="none" xmlns="http://www.w3.org/2000/svg">
<path fill-rule="evenodd" clip-rule="evenodd" d="M3.34579 3.34579C0 6.69159 0 12.0765 0 22.8465V24.7504C0 35.5204 0 40.9053 3.34579 44.2511C6.69159 47.5969 12.0765 47.5969 22.8465 47.5969H24.7504C35.5204 47.5969 40.9053 47.5969 44.2511 44.2511C47.5969 40.9053 47.5969 35.5204 47.5969 24.7504V22.8465C47.5969 12.0765 47.5969 6.69159 44.2511 3.34579C40.9053 0 35.5204 0 24.7504 0H22.8465C12.0765 0 6.69159 0 3.34579 3.34579ZM8.03209 14.4775C8.28991 26.8527 14.4775 34.2897 25.3256 34.2897H25.9405V27.2096C29.9267 27.6063 32.941 30.5216 34.1508 34.2897H39.7831C38.2363 28.6574 34.1705 25.5438 31.632 24.3538C34.1705 22.8863 37.7403 19.3165 38.593 14.4775H33.4763C32.3657 18.4042 29.074 21.974 25.9405 22.3111V14.4775H20.8236V28.2012C17.6505 27.408 13.6445 23.5606 13.466 14.4775H8.03209Z" fill="#B3A16E"/>
</svg>
