<svg width="183" height="187" viewBox="0 0 183 187" fill="none" xmlns="http://www.w3.org/2000/svg">
<path d="M58.1648 0.148763H57.9268L58.1053 0L58.1648 0.148763Z" fill="#222222"/>
<path d="M124.357 0.148763H124.119L124.179 0L124.357 0.148763Z" fill="#222222"/>
<path d="M57.7402 0.148926H57.9158L57.7402 0.295255V0.148926Z" fill="#222222"/>
<path d="M124.929 0.148926V0.630665L124.357 0.148926H124.929Z" fill="#222222"/>
<path d="M182.283 110.188V186.652H151.208V141.263H31.0449V186.652H0V110.188H182.283Z" fill="#222222"/>
<path d="M182.283 48.8V91.9246H151.208V61.8763L114.637 31.1938H67.6162L31.0449 61.8763V91.9246H0V48.8L57.7411 0.29992L57.9223 0.148926H124.361L124.934 0.632114L182.283 48.8Z" fill="#222222"/>
</svg>
