<svg width="30" height="32" viewBox="0 0 30 32" fill="none" xmlns="http://www.w3.org/2000/svg">
<path d="M9.48566 0.828927H9.44531L9.47557 0.803711L9.48566 0.828927Z" fill="#B3A16E"/>
<path d="M20.2825 0.828927H20.2422L20.2523 0.803711L20.2825 0.828927Z" fill="#B3A16E"/>
<path d="M9.41406 0.828247H9.443L9.41406 0.852359V0.828247Z" fill="#B3A16E"/>
<path d="M20.3728 0.828247V0.908617L20.2773 0.828247H20.3728Z" fill="#B3A16E"/>
<path d="M29.7258 18.806V31.2986H24.6582V23.883H5.06264V31.2986H0V18.806H29.7258Z" fill="#B3A16E"/>
<path d="M29.7258 8.7767V15.8223H24.6582V10.9131L18.6943 5.90026H11.0265L5.06264 10.9131V15.8223H0V8.7767L9.41611 0.852916L9.44566 0.828247H20.2801L20.3737 0.907189L29.7258 8.7767Z" fill="#B3A16E"/>
</svg>
