<svg width="30" height="31" viewBox="0 0 30 31" fill="none" xmlns="http://www.w3.org/2000/svg">
<path d="M9.48761 0.0252158H9.44727L9.47752 0L9.48761 0.0252158Z" fill="#B3A16E"/>
<path d="M20.2811 0.0252158H20.2407L20.2508 0L20.2811 0.0252158Z" fill="#B3A16E"/>
<path d="M9.41553 0.0244141H9.44446L9.41553 0.0485259V0.0244141Z" fill="#B3A16E"/>
<path d="M20.3738 0.0244141V0.104784L20.2783 0.0244141H20.3738Z" fill="#B3A16E"/>
<path d="M29.7258 17.9692V30.4387H24.6582V23.0368H5.06264V30.4387H0V17.9692H29.7258Z" fill="#B3A16E"/>
<path d="M29.7258 7.95818V14.9907H24.6582V10.0906L18.6943 5.08705H11.0265L5.06264 10.0906V14.9907H0V7.95818L9.41611 0.0490374L9.44566 0.0244141H20.2801L20.3737 0.10321L29.7258 7.95818Z" fill="#B3A16E"/>
</svg>
