<svg width="103" height="106" viewBox="0 0 103 106" fill="none" xmlns="http://www.w3.org/2000/svg">
<path d="M32.7452 0.0836889H32.6113L32.7118 0L32.7452 0.0836889Z" fill="#222222"/>
<path d="M70.0099 0.0836889H69.876L69.9095 0L70.0099 0.0836889Z" fill="#222222"/>
<path d="M32.5068 0.0837402H32.6061L32.5068 0.166431V0.0837402Z" fill="#222222"/>
<path d="M70.3327 0.0837402V0.354891L70.0107 0.0837402H70.3327Z" fill="#222222"/>
<path d="M102.621 62.0327V105.08H85.1264V79.5272H17.4775V105.08H0V62.0327H102.621Z" fill="#222222"/>
<path d="M102.621 27.4731V51.7512H85.1264V34.8347L64.5376 17.5612H38.0663L17.4775 34.8347V51.7512H0V27.4731L32.5068 0.168746L32.6088 0.0837402H70.012L70.3351 0.355763L102.621 27.4731Z" fill="#222222"/>
</svg>
