<svg width="105" height="114" viewBox="0 0 105 114" fill="none" xmlns="http://www.w3.org/2000/svg">
<path d="M104.049 78.6561H103.911L104.049 78.9141V85.486L70.9487 113.27H33.1002L0 85.486V59.3189H16.6705V29.7283L7.82776 22.3134V0L34.3733 22.279V22.3134L34.2701 22.7435H34.3733V59.3189H17.6856V78.0367L38.5539 95.5503L38.5367 95.5847H65.5123L65.4951 95.5503L86.3634 78.0367V59.3189H69.7617V29.7455L60.9017 22.3134V0L87.4473 22.279L87.344 22.7435H87.4473V59.3189H104.049V78.6561Z" fill="#222222"/>
<path d="M60.9024 22.3134L60.7992 22.7435H60.9024V59.3189H43.2168V29.7455L34.374 22.3134V0L60.9024 22.279V22.3134Z" fill="#222222"/>
</svg>
