<svg width="17" height="17" viewBox="0 0 17 17" fill="none" xmlns="http://www.w3.org/2000/svg">
<circle cx="8.125" cy="8.125" r="7.76119" stroke="#E8E8E8" stroke-width="0.727612"/>
<path d="M8.61007 4.08005C8.61007 3.81215 8.3929 3.59497 8.125 3.59497C7.8571 3.59497 7.63993 3.81215 7.63993 4.08005L8.61007 4.08005ZM7.782 12.998C7.97143 13.1875 8.27857 13.1875 8.468 12.998L11.555 9.91104C11.7444 9.72161 11.7444 9.41447 11.555 9.22504C11.3656 9.03561 11.0584 9.03561 10.869 9.22504L8.125 11.969L5.381 9.22504C5.19157 9.03561 4.88444 9.03561 4.695 9.22504C4.50557 9.41447 4.50557 9.72161 4.695 9.91104L7.782 12.998ZM7.63993 4.08005L7.63992 12.655L8.61007 12.655L8.61007 4.08005L7.63993 4.08005Z" fill="#E8E8E8"/>
</svg>
