<svg width="25" height="25" viewBox="0 0 25 25" fill="none" xmlns="http://www.w3.org/2000/svg">
<g clip-path="url(#clip0_82_1650)">
<path d="M6.64327 20.8683L9.42973 18.0899L12.2843 20.993L12.4613 21.1731L12.6396 20.9943L20.964 12.6449L21.1413 12.4672L20.9628 12.2907C20.0314 11.3694 19.0555 10.4031 18.0775 9.43472C18.3978 9.11389 18.7135 8.79755 19.0274 8.48303C19.644 7.86517 20.2537 7.25432 20.8771 6.63011C20.9933 6.74919 21.1097 6.86859 21.2262 6.98813C21.596 7.36763 21.9672 7.74858 22.3412 8.12523C22.6233 8.40976 22.9056 8.69147 23.1874 8.97262C23.6731 9.45719 24.157 9.94008 24.6353 10.4329C24.6989 10.5072 24.7354 10.6009 24.7389 10.6986C24.7522 11.8952 24.7542 13.0913 24.7389 14.287C24.7344 14.406 24.6892 14.5197 24.611 14.6094C22.3905 16.8447 20.1653 19.0736 17.9355 21.296L17.9352 21.2963C17.6528 21.5786 17.3699 21.8609 17.087 22.1432C16.2779 22.9503 15.4681 23.7582 14.6667 24.5724L14.6665 24.5722L14.6585 24.5811C14.6073 24.6384 14.5441 24.6834 14.4733 24.7131C14.4025 24.7428 14.326 24.7563 14.2493 24.7527L14.2493 24.7525L14.2403 24.7524C13.6502 24.7457 13.0602 24.7457 12.4715 24.7458L12.4499 24.7458C11.868 24.7459 11.2873 24.746 10.7063 24.7398L10.7063 24.7397H10.7036C10.6152 24.7398 10.5295 24.71 10.4601 24.6556C9.37801 23.5924 8.30463 22.5231 7.22549 21.4482C7.03163 21.255 6.83758 21.0618 6.64327 20.8683Z" fill="black" fill-opacity="0.75" stroke="#B3A16E" stroke-width="0.5"/>
<path d="M12.5053 16.2187L8.77571 12.4915C10.0114 11.2589 11.2557 10.0166 12.4892 8.78399L16.223 12.5106L12.5053 16.2187Z" fill="black" fill-opacity="0.75" stroke="#B3A16E" stroke-width="0.5"/>
<path d="M18.3577 4.13149L15.5707 6.90991L12.7161 4.00736L12.5391 3.82737L12.3608 4.00614L4.03636 12.3548L3.85912 12.5326L4.0376 12.7091L6.92604 15.5657C5.97677 16.5161 5.06686 17.4277 4.12663 18.3701C4.02309 18.264 3.91949 18.1576 3.8158 18.0512C3.43335 17.6587 3.04961 17.2648 2.6627 16.8746C2.38054 16.5901 2.09816 16.3083 1.81635 16.0271C1.3306 15.5425 0.846538 15.0595 0.368216 14.5666C0.304431 14.4925 0.267711 14.3989 0.264127 14.3011C0.251512 13.1045 0.249527 11.9084 0.264117 10.7127C0.268671 10.5937 0.313852 10.4799 0.392079 10.3903C2.61034 8.15503 4.83526 5.9262 7.06683 3.7038L7.06719 3.70345C7.38133 3.38935 7.69613 3.07542 8.01108 2.76134C8.78865 1.98593 9.56712 1.20962 10.3388 0.427593L10.339 0.427814L10.3474 0.418445C10.3983 0.36136 10.4614 0.316397 10.532 0.28685C10.6026 0.257303 10.6789 0.243923 10.7553 0.247693L10.7553 0.247879L10.7649 0.247982C11.3552 0.254333 11.9453 0.25433 12.534 0.254247L12.557 0.254244C13.1385 0.254161 13.7186 0.254078 14.2989 0.259984L14.2989 0.260001L14.3017 0.259997C14.3902 0.259877 14.4759 0.289693 14.5451 0.34443C15.5444 1.32962 16.5386 2.31989 17.5375 3.3148C17.8105 3.58669 18.0839 3.85892 18.3577 4.13149Z" fill="black" fill-opacity="0.75" stroke="#B3A16E" stroke-width="0.5"/>
</g>
<defs>
<clipPath id="clip0_82_1650">
<rect width="25" height="25" fill="white"/>
</clipPath>
</defs>
</svg>
