<svg width="41" height="68" viewBox="0 0 41 68" fill="none" xmlns="http://www.w3.org/2000/svg">
<path d="M31.0202 8.32635L17.8504 11.7824L0 6.99456V0L31.0202 8.32635Z" fill="#E8E8E8"/>
<path d="M40.9999 61.0054H0V68H40.9999V61.0054Z" fill="#E8E8E8"/>
<path d="M40.9996 8.9787V15.9733L23.1483 20.7646L9.97852 17.3041L40.9996 8.9787Z" fill="#E8E8E8"/>
<path d="M40.9999 27.2334V34.2262L10.5973 42.3874L4.28711 37.0863L40.9999 27.2334Z" fill="#E8E8E8"/>
<path d="M31.0202 26.4249L17.8504 29.8854L0 25.094V18.0994L31.0202 26.4249Z" fill="#E8E8E8"/>
<path d="M18.3559 53.7309L0 38.3023V47.1231L12.9573 58.0081H18.3559V53.7309Z" fill="#E8E8E8"/>
<path d="M22.6436 53.7309L41.0004 38.3023V47.1231L28.0413 58.0081H22.6436V53.7309Z" fill="#E8E8E8"/>
</svg>
